{"title":"The Hunger Games Mockingjay Part 1 2014 Movies CamRip New â˜»rDXâ˜»","uid":11599473,"size":800546677,"categoryP":"video","categoryS":"movies","magnet":"?xt=urn:btih:b2462ef1b6f1b1293f4aa82290e5c4fdda709e5d&amp;dn=The+Hunger+Games+Mockingjay+Part+1+2014+Movies+CamRip+New+%E2%98%BBrDX%E2%98%BB&amp;tr=udp%3A%2F%2Ftracker.openbittorrent.com%3A80&amp;tr=udp%3A%2F%2Fopen.demonii.com%3A1337&amp;tr=udp%3A%2F%2Ftracker.coppersurfer.tk%3A6969&amp;tr=udp%3A%2F%2Fexodus.desync.com%3A6969","seeders":26,"leechers":5,"uploader":"basicssom","files":2,"time":1417323546,"description":"----------------------------------------------------------------\nThe Hunger Games Mockingjay - Part 1 2014 English Movies CamRip Audio Cleaned New Source â˜»rDXâ˜»\n\nSCREEN SHOTS &amp; POSTER:\n &lt;a href=&quot;\nhttp://planethost.co.nr/7/TheHungerGamesMockingjayPart1/11.html&quot; rel=&quot;nofollow&quot; target=&quot;_NEW&quot;&gt;\nhttp://planethost.co.nr/7/TheHungerGamesMockingjayPart1/11.html&lt;/a&gt; &lt;a href=&quot;\nhttp://planethost.co.nr/7/TheHungerGamesMockingjayPart1/1.html&quot; rel=&quot;nofollow&quot; target=&quot;_NEW&quot;&gt;\nhttp://planethost.co.nr/7/TheHungerGamesMockingjayPart1/1.html&lt;/a&gt; &lt;a href=&quot;\nhttp://planethost.co.nr/7/TheHungerGamesMockingjayPart1/2.html&quot; rel=&quot;nofollow&quot; target=&quot;_NEW&quot;&gt;\nhttp://planethost.co.nr/7/TheHungerGamesMockingjayPart1/2.html&lt;/a&gt; &lt;a href=&quot;\nhttp://planethost.co.nr/7/TheHungerGamesMockingjayPart1/3.html&quot; rel=&quot;nofollow&quot; target=&quot;_NEW&quot;&gt;\nhttp://planethost.co.nr/7/TheHungerGamesMockingjayPart1/3.html&lt;/a&gt; &lt;a href=&quot;\nhttp://planethost.co.nr/7/TheHungerGamesMockingjayPart1/4.html&quot; rel=&quot;nofollow&quot; target=&quot;_NEW&quot;&gt;\nhttp://planethost.co.nr/7/TheHungerGamesMockingjayPart1/4.html&lt;/a&gt; &lt;a href=&quot;\nhttp://planethost.co.nr/7/TheHungerGamesMockingjayPart1/5.html&quot; rel=&quot;nofollow&quot; target=&quot;_NEW&quot;&gt;\nhttp://planethost.co.nr/7/TheHungerGamesMockingjayPart1/5.html&lt;/a&gt; &lt;a href=&quot;\nhttp://planethost.co.nr/7/TheHungerGamesMockingjayPart1/6.html&quot; rel=&quot;nofollow&quot; target=&quot;_NEW&quot;&gt;\nhttp://planethost.co.nr/7/TheHungerGamesMockingjayPart1/6.html&lt;/a&gt; &lt;a href=&quot;\nhttp://planethost.co.nr/7/TheHungerGamesMockingjayPart1/7.html&quot; rel=&quot;nofollow&quot; target=&quot;_NEW&quot;&gt;\nhttp://planethost.co.nr/7/TheHungerGamesMockingjayPart1/7.html&lt;/a&gt; &lt;a href=&quot;\nhttp://planethost.co.nr/7/TheHungerGamesMockingjayPart1/8.html&quot; rel=&quot;nofollow&quot; target=&quot;_NEW&quot;&gt;\nhttp://planethost.co.nr/7/TheHungerGamesMockingjayPart1/8.html&lt;/a&gt; &lt;a href=&quot;\nhttp://planethost.co.nr/7/TheHungerGamesMockingjayPart1/9.html&quot; rel=&quot;nofollow&quot; target=&quot;_NEW&quot;&gt;\nhttp://planethost.co.nr/7/TheHungerGamesMockingjayPart1/9.html&lt;/a&gt; &lt;a href=&quot;\nhttp://planethost.co.nr/7/TheHungerGamesMockingjayPart1/10.html&quot; rel=&quot;nofollow&quot; target=&quot;_NEW&quot;&gt;\nhttp://planethost.co.nr/7/TheHungerGamesMockingjayPart1/10.html&lt;/a&gt;\n\nFormat                                   : Matroska\nFormat version                           : Version 4 / Version 2\nFile size                                : 758 MiB\nDuration                                 : 1h 50mn\nOverall bit rate mode                    : Variable\nOverall bit rate                         : 963 Kbps\nMovie name                               : The Hunger Games Mockingjay - Part 1 2014 English Movies CamRip Audio Cleaned New Source ~ rDX ~\n\nVideo\nID                                       : 1\nFormat                                   : AVC\nFormat/Info                              : Advanced Video Codec\nFormat profile                           : &lt;a class=&quot;__cf_email__&quot; href=&quot;/cdn-cgi/l/email-protection&quot; data-cfemail=&quot;efa7868887afa3dbc1de&quot;&gt;[email&amp;#160;protected]&lt;/a&gt;&lt;script cf-hash='f9e31' type=&quot;text/javascript&quot;&gt;\n/* &lt;![CDATA[ */!function(){try{var t=&quot;currentScript&quot;in document?document.currentScript:function(){for(var t=document.getElementsByTagName(&quot;script&quot;),e=t.length;e--;)if(t[e].getAttribute(&quot;cf-hash&quot;))return t[e]}();if(t&amp;&amp;t.previousSibling){var e,r,n,i,c=t.previousSibling,a=c.getAttribute(&quot;data-cfemail&quot;);if(a){for(e=&quot;&quot;,r=parseInt(a.substr(0,2),16),n=2;a.length-n;n+=2)i=parseInt(a.substr(n,2),16)^r,e+=String.fromCharCode(i);e=document.createTextNode(e),c.parentNode.replaceChild(e,c)}}}catch(u){}}();/* ]]&gt; */&lt;/script&gt;\nFormat settings, CABAC                   : Yes\nFormat settings, ReFrames                : 3 frames\nCodec ID                                 : V_MPEG4/ISO/AVC\nDuration                                 : 1h 50mn\nBit rate mode                            : Variable\nBit rate                                 : 720 Kbps\nMaximum bit rate                         : 40.0 Mbps\nWidth                                    : 720 pixels\nHeight                                   : 400 pixels\nDisplay aspect ratio                     : 16:9\nFrame rate mode                          : Constant\nFrame rate                               : 23.976 fps\nColor space                              : YUV\nChroma subsampling                       : 4:2:0\nBit depth                                : 8 bits\nScan type                                : Progressive\nBits/(Pixel*Frame)                       : 0.104\nStream size                              : 567 MiB (75%)\nTitle                                    : ~ rDX ~\nDefault                                  : Yes\nForced                                   : No\nColor primaries                          : BT.709\nTransfer characteristics                 : BT.709\nMatrix coefficients                      : BT.709\n\nAudio\nID                                       : 2\nFormat                                   : AC-3\nFormat/Info                              : Audio Coding 3\nMode extension                           : CM (complete main)\nFormat settings, Endianness              : Big\nCodec ID                                 : A_AC3\nDuration                                 : 1h 50mn\nBit rate mode                            : Constant\nBit rate                                 : 224 Kbps\nChannel(s)                               : 2 channels\nChannel positions                        : Front: L R\nSampling rate                            : 48.0 KHz\nBit depth                                : 16 bits\nCompression mode                         : Lossy\nDelay relative to video                  : 3s 0ms\nStream size                              : 176 MiB (23%)\nTitle                                    : ~ rDX ~\nLanguage                                 : English\nDefault                                  : Yes\nForced                                   : No","torrent":{"xt":"urn:btih:b2462ef1b6f1b1293f4aa82290e5c4fdda709e5d","amp;dn":"The+Hunger+Games+Mockingjay+Part+1+2014+Movies+CamRip+New+%E2%98%BBrDX%E2%98%BB","amp;tr":["udp%3A%2F%2Ftracker.openbittorrent.com%3A80","udp%3A%2F%2Fopen.demonii.com%3A1337","udp%3A%2F%2Ftracker.coppersurfer.tk%3A6969","udp%3A%2F%2Fexodus.desync.com%3A6969"],"infoHash":"b2462ef1b6f1b1293f4aa82290e5c4fdda709e5d","infoHashBuffer":{"type":"Buffer","data":[178,70,46,241,182,241,177,41,63,74,168,34,144,229,196,253,218,112,158,93]},"announce":[],"urlList":[]}}